<?xml version="1.0" encoding="utf-8" standalone="no"?>
<!DOCTYPE svg PUBLIC "-//W3C//DTD SVG 1.1//EN"
  "http://www.w3.org/Graphics/SVG/1.1/DTD/svg11.dtd">
<!-- Created with matplotlib (http://matplotlib.org/) -->
<svg height="288pt" version="1.1" viewBox="0 0 360 288" width="360pt" xmlns="http://www.w3.org/2000/svg" xmlns:xlink="http://www.w3.org/1999/xlink">
 <defs>
  <style type="text/css">
*{stroke-linecap:butt;stroke-linejoin:round;}
  </style>
 </defs>
 <g id="figure_1">
  <g id="patch_1">
   <path d="M 0 288 
L 360 288 
L 360 0 
L 0 0 
z
" style="fill:#ffffff;"/>
  </g>
  <g id="axes_1">
   <g id="patch_2">
    <path d="M 47.675 246.2 
L 345.7 246.2 
L 345.7 14.3 
L 47.675 14.3 
z
" style="fill:#ffffff;"/>
   </g>
   <g id="matplotlib.axis_1">
    <g id="xtick_1">
     <g id="line2d_1">
      <defs>
       <path d="M 0 0 
L 0 3.5 
" id="mfd4daae2cb" style="stroke:#000000;stroke-width:0.8;"/>
      </defs>
      <g>
       <use style="stroke:#000000;stroke-width:0.8;" x="47.675" xlink:href="#mfd4daae2cb" y="246.2"/>
      </g>
     </g>
     <g id="text_1">
      <!-- 1 -->
      <defs>
       <path d="M 12.40625 8.296875 
L 28.515625 8.296875 
L 28.515625 63.921875 
L 10.984375 60.40625 
L 10.984375 69.390625 
L 28.421875 72.90625 
L 38.28125 72.90625 
L 38.28125 8.296875 
L 54.390625 8.296875 
L 54.390625 0 
L 12.40625 0 
z
" id="DejaVuSans-31"/>
      </defs>
      <g transform="translate(44.49375 260.798437)scale(0.1 -0.1)">
       <use xlink:href="#DejaVuSans-31"/>
      </g>
     </g>
    </g>
    <g id="xtick_2">
     <g id="line2d_2">
      <g>
       <use style="stroke:#000000;stroke-width:0.8;" x="82.32907" xlink:href="#mfd4daae2cb" y="246.2"/>
      </g>
     </g>
     <g id="text_2">
      <!-- 2 -->
      <defs>
       <path d="M 19.1875 8.296875 
L 53.609375 8.296875 
L 53.609375 0 
L 7.328125 0 
L 7.328125 8.296875 
Q 12.9375 14.109375 22.625 23.890625 
Q 32.328125 33.6875 34.8125 36.53125 
Q 39.546875 41.84375 41.421875 45.53125 
Q 43.3125 49.21875 43.3125 52.78125 
Q 43.3125 58.59375 39.234375 62.25 
Q 35.15625 65.921875 28.609375 65.921875 
Q 23.96875 65.921875 18.8125 64.3125 
Q 13.671875 62.703125 7.8125 59.421875 
L 7.8125 69.390625 
Q 13.765625 71.78125 18.9375 73 
Q 24.125 74.21875 28.421875 74.21875 
Q 39.75 74.21875 46.484375 68.546875 
Q 53.21875 62.890625 53.21875 53.421875 
Q 53.21875 48.921875 51.53125 44.890625 
Q 49.859375 40.875 45.40625 35.40625 
Q 44.1875 33.984375 37.640625 27.21875 
Q 31.109375 20.453125 19.1875 8.296875 
z
" id="DejaVuSans-32"/>
      </defs>
      <g transform="translate(79.14782 260.798437)scale(0.1 -0.1)">
       <use xlink:href="#DejaVuSans-32"/>
      </g>
     </g>
    </g>
    <g id="xtick_3">
     <g id="line2d_3">
      <g>
       <use style="stroke:#000000;stroke-width:0.8;" x="116.98314" xlink:href="#mfd4daae2cb" y="246.2"/>
      </g>
     </g>
     <g id="text_3">
      <!-- 3 -->
      <defs>
       <path d="M 40.578125 39.3125 
Q 47.65625 37.796875 51.625 33 
Q 55.609375 28.21875 55.609375 21.1875 
Q 55.609375 10.40625 48.1875 4.484375 
Q 40.765625 -1.421875 27.09375 -1.421875 
Q 22.515625 -1.421875 17.65625 -0.515625 
Q 12.796875 0.390625 7.625 2.203125 
L 7.625 11.71875 
Q 11.71875 9.328125 16.59375 8.109375 
Q 21.484375 6.890625 26.8125 6.890625 
Q 36.078125 6.890625 40.9375 10.546875 
Q 45.796875 14.203125 45.796875 21.1875 
Q 45.796875 27.640625 41.28125 31.265625 
Q 36.765625 34.90625 28.71875 34.90625 
L 20.21875 34.90625 
L 20.21875 43.015625 
L 29.109375 43.015625 
Q 36.375 43.015625 40.234375 45.921875 
Q 44.09375 48.828125 44.09375 54.296875 
Q 44.09375 59.90625 40.109375 62.90625 
Q 36.140625 65.921875 28.71875 65.921875 
Q 24.65625 65.921875 20.015625 65.03125 
Q 15.375 64.15625 9.8125 62.3125 
L 9.8125 71.09375 
Q 15.4375 72.65625 20.34375 73.4375 
Q 25.25 74.21875 29.59375 74.21875 
Q 40.828125 74.21875 47.359375 69.109375 
Q 53.90625 64.015625 53.90625 55.328125 
Q 53.90625 49.265625 50.4375 45.09375 
Q 46.96875 40.921875 40.578125 39.3125 
z
" id="DejaVuSans-33"/>
      </defs>
      <g transform="translate(113.80189 260.798437)scale(0.1 -0.1)">
       <use xlink:href="#DejaVuSans-33"/>
      </g>
     </g>
    </g>
    <g id="xtick_4">
     <g id="line2d_4">
      <g>
       <use style="stroke:#000000;stroke-width:0.8;" x="151.637209" xlink:href="#mfd4daae2cb" y="246.2"/>
      </g>
     </g>
     <g id="text_4">
      <!-- 4 -->
      <defs>
       <path d="M 37.796875 64.3125 
L 12.890625 25.390625 
L 37.796875 25.390625 
z
M 35.203125 72.90625 
L 47.609375 72.90625 
L 47.609375 25.390625 
L 58.015625 25.390625 
L 58.015625 17.1875 
L 47.609375 17.1875 
L 47.609375 0 
L 37.796875 0 
L 37.796875 17.1875 
L 4.890625 17.1875 
L 4.890625 26.703125 
z
" id="DejaVuSans-34"/>
      </defs>
      <g transform="translate(148.455959 260.798437)scale(0.1 -0.1)">
       <use xlink:href="#DejaVuSans-34"/>
      </g>
     </g>
    </g>
    <g id="xtick_5">
     <g id="line2d_5">
      <g>
       <use style="stroke:#000000;stroke-width:0.8;" x="186.291279" xlink:href="#mfd4daae2cb" y="246.2"/>
      </g>
     </g>
     <g id="text_5">
      <!-- 5 -->
      <defs>
       <path d="M 10.796875 72.90625 
L 49.515625 72.90625 
L 49.515625 64.59375 
L 19.828125 64.59375 
L 19.828125 46.734375 
Q 21.96875 47.46875 24.109375 47.828125 
Q 26.265625 48.1875 28.421875 48.1875 
Q 40.625 48.1875 47.75 41.5 
Q 54.890625 34.8125 54.890625 23.390625 
Q 54.890625 11.625 47.5625 5.09375 
Q 40.234375 -1.421875 26.90625 -1.421875 
Q 22.3125 -1.421875 17.546875 -0.640625 
Q 12.796875 0.140625 7.71875 1.703125 
L 7.71875 11.625 
Q 12.109375 9.234375 16.796875 8.0625 
Q 21.484375 6.890625 26.703125 6.890625 
Q 35.15625 6.890625 40.078125 11.328125 
Q 45.015625 15.765625 45.015625 23.390625 
Q 45.015625 31 40.078125 35.4375 
Q 35.15625 39.890625 26.703125 39.890625 
Q 22.75 39.890625 18.8125 39.015625 
Q 14.890625 38.140625 10.796875 36.28125 
z
" id="DejaVuSans-35"/>
      </defs>
      <g transform="translate(183.110029 260.798437)scale(0.1 -0.1)">
       <use xlink:href="#DejaVuSans-35"/>
      </g>
     </g>
    </g>
    <g id="xtick_6">
     <g id="line2d_6">
      <g>
       <use style="stroke:#000000;stroke-width:0.8;" x="220.945349" xlink:href="#mfd4daae2cb" y="246.2"/>
      </g>
     </g>
     <g id="text_6">
      <!-- 6 -->
      <defs>
       <path d="M 33.015625 40.375 
Q 26.375 40.375 22.484375 35.828125 
Q 18.609375 31.296875 18.609375 23.390625 
Q 18.609375 15.53125 22.484375 10.953125 
Q 26.375 6.390625 33.015625 6.390625 
Q 39.65625 6.390625 43.53125 10.953125 
Q 47.40625 15.53125 47.40625 23.390625 
Q 47.40625 31.296875 43.53125 35.828125 
Q 39.65625 40.375 33.015625 40.375 
z
M 52.59375 71.296875 
L 52.59375 62.3125 
Q 48.875 64.0625 45.09375 64.984375 
Q 41.3125 65.921875 37.59375 65.921875 
Q 27.828125 65.921875 22.671875 59.328125 
Q 17.53125 52.734375 16.796875 39.40625 
Q 19.671875 43.65625 24.015625 45.921875 
Q 28.375 48.1875 33.59375 48.1875 
Q 44.578125 48.1875 50.953125 41.515625 
Q 57.328125 34.859375 57.328125 23.390625 
Q 57.328125 12.15625 50.6875 5.359375 
Q 44.046875 -1.421875 33.015625 -1.421875 
Q 20.359375 -1.421875 13.671875 8.265625 
Q 6.984375 17.96875 6.984375 36.375 
Q 6.984375 53.65625 15.1875 63.9375 
Q 23.390625 74.21875 37.203125 74.21875 
Q 40.921875 74.21875 44.703125 73.484375 
Q 48.484375 72.75 52.59375 71.296875 
z
" id="DejaVuSans-36"/>
      </defs>
      <g transform="translate(217.764099 260.798437)scale(0.1 -0.1)">
       <use xlink:href="#DejaVuSans-36"/>
      </g>
     </g>
    </g>
    <g id="xtick_7">
     <g id="line2d_7">
      <g>
       <use style="stroke:#000000;stroke-width:0.8;" x="255.599419" xlink:href="#mfd4daae2cb" y="246.2"/>
      </g>
     </g>
     <g id="text_7">
      <!-- 7 -->
      <defs>
       <path d="M 8.203125 72.90625 
L 55.078125 72.90625 
L 55.078125 68.703125 
L 28.609375 0 
L 18.3125 0 
L 43.21875 64.59375 
L 8.203125 64.59375 
z
" id="DejaVuSans-37"/>
      </defs>
      <g transform="translate(252.418169 260.798437)scale(0.1 -0.1)">
       <use xlink:href="#DejaVuSans-37"/>
      </g>
     </g>
    </g>
    <g id="text_8">
     <!-- Octave                              -->
     <defs>
      <path d="M 39.40625 66.21875 
Q 28.65625 66.21875 22.328125 58.203125 
Q 16.015625 50.203125 16.015625 36.375 
Q 16.015625 22.609375 22.328125 14.59375 
Q 28.65625 6.59375 39.40625 6.59375 
Q 50.140625 6.59375 56.421875 14.59375 
Q 62.703125 22.609375 62.703125 36.375 
Q 62.703125 50.203125 56.421875 58.203125 
Q 50.140625 66.21875 39.40625 66.21875 
z
M 39.40625 74.21875 
Q 54.734375 74.21875 63.90625 63.9375 
Q 73.09375 53.65625 73.09375 36.375 
Q 73.09375 19.140625 63.90625 8.859375 
Q 54.734375 -1.421875 39.40625 -1.421875 
Q 24.03125 -1.421875 14.8125 8.828125 
Q 5.609375 19.09375 5.609375 36.375 
Q 5.609375 53.65625 14.8125 63.9375 
Q 24.03125 74.21875 39.40625 74.21875 
z
" id="DejaVuSans-4f"/>
      <path d="M 48.78125 52.59375 
L 48.78125 44.1875 
Q 44.96875 46.296875 41.140625 47.34375 
Q 37.3125 48.390625 33.40625 48.390625 
Q 24.65625 48.390625 19.8125 42.84375 
Q 14.984375 37.3125 14.984375 27.296875 
Q 14.984375 17.28125 19.8125 11.734375 
Q 24.65625 6.203125 33.40625 6.203125 
Q 37.3125 6.203125 41.140625 7.25 
Q 44.96875 8.296875 48.78125 10.40625 
L 48.78125 2.09375 
Q 45.015625 0.34375 40.984375 -0.53125 
Q 36.96875 -1.421875 32.421875 -1.421875 
Q 20.0625 -1.421875 12.78125 6.34375 
Q 5.515625 14.109375 5.515625 27.296875 
Q 5.515625 40.671875 12.859375 48.328125 
Q 20.21875 56 33.015625 56 
Q 37.15625 56 41.109375 55.140625 
Q 45.0625 54.296875 48.78125 52.59375 
z
" id="DejaVuSans-63"/>
      <path d="M 18.3125 70.21875 
L 18.3125 54.6875 
L 36.8125 54.6875 
L 36.8125 47.703125 
L 18.3125 47.703125 
L 18.3125 18.015625 
Q 18.3125 11.328125 20.140625 9.421875 
Q 21.96875 7.515625 27.59375 7.515625 
L 36.8125 7.515625 
L 36.8125 0 
L 27.59375 0 
Q 17.1875 0 13.234375 3.875 
Q 9.28125 7.765625 9.28125 18.015625 
L 9.28125 47.703125 
L 2.6875 47.703125 
L 2.6875 54.6875 
L 9.28125 54.6875 
L 9.28125 70.21875 
z
" id="DejaVuSans-74"/>
      <path d="M 34.28125 27.484375 
Q 23.390625 27.484375 19.1875 25 
Q 14.984375 22.515625 14.984375 16.5 
Q 14.984375 11.71875 18.140625 8.90625 
Q 21.296875 6.109375 26.703125 6.109375 
Q 34.1875 6.109375 38.703125 11.40625 
Q 43.21875 16.703125 43.21875 25.484375 
L 43.21875 27.484375 
z
M 52.203125 31.203125 
L 52.203125 0 
L 43.21875 0 
L 43.21875 8.296875 
Q 40.140625 3.328125 35.546875 0.953125 
Q 30.953125 -1.421875 24.3125 -1.421875 
Q 15.921875 -1.421875 10.953125 3.296875 
Q 6 8.015625 6 15.921875 
Q 6 25.140625 12.171875 29.828125 
Q 18.359375 34.515625 30.609375 34.515625 
L 43.21875 34.515625 
L 43.21875 35.40625 
Q 43.21875 41.609375 39.140625 45 
Q 35.0625 48.390625 27.6875 48.390625 
Q 23 48.390625 18.546875 47.265625 
Q 14.109375 46.140625 10.015625 43.890625 
L 10.015625 52.203125 
Q 14.9375 54.109375 19.578125 55.046875 
Q 24.21875 56 28.609375 56 
Q 40.484375 56 46.34375 49.84375 
Q 52.203125 43.703125 52.203125 31.203125 
z
" id="DejaVuSans-61"/>
      <path d="M 2.984375 54.6875 
L 12.5 54.6875 
L 29.59375 8.796875 
L 46.6875 54.6875 
L 56.203125 54.6875 
L 35.6875 0 
L 23.484375 0 
z
" id="DejaVuSans-76"/>
      <path d="M 56.203125 29.59375 
L 56.203125 25.203125 
L 14.890625 25.203125 
Q 15.484375 15.921875 20.484375 11.0625 
Q 25.484375 6.203125 34.421875 6.203125 
Q 39.59375 6.203125 44.453125 7.46875 
Q 49.3125 8.734375 54.109375 11.28125 
L 54.109375 2.78125 
Q 49.265625 0.734375 44.1875 -0.34375 
Q 39.109375 -1.421875 33.890625 -1.421875 
Q 20.796875 -1.421875 13.15625 6.1875 
Q 5.515625 13.8125 5.515625 26.8125 
Q 5.515625 40.234375 12.765625 48.109375 
Q 20.015625 56 32.328125 56 
Q 43.359375 56 49.78125 48.890625 
Q 56.203125 41.796875 56.203125 29.59375 
z
M 47.21875 32.234375 
Q 47.125 39.59375 43.09375 43.984375 
Q 39.0625 48.390625 32.421875 48.390625 
Q 24.90625 48.390625 20.390625 44.140625 
Q 15.875 39.890625 15.1875 32.171875 
z
" id="DejaVuSans-65"/>
      <path id="DejaVuSans-20"/>
     </defs>
     <g transform="translate(132.859375 274.476562)scale(0.1 -0.1)">
      <use xlink:href="#DejaVuSans-4f"/>
      <use x="78.710938" xlink:href="#DejaVuSans-63"/>
      <use x="133.691406" xlink:href="#DejaVuSans-74"/>
      <use x="172.900391" xlink:href="#DejaVuSans-61"/>
      <use x="234.179688" xlink:href="#DejaVuSans-76"/>
      <use x="293.359375" xlink:href="#DejaVuSans-65"/>
      <use x="354.882812" xlink:href="#DejaVuSans-20"/>
      <use x="386.669922" xlink:href="#DejaVuSans-20"/>
      <use x="418.457031" xlink:href="#DejaVuSans-20"/>
      <use x="450.244141" xlink:href="#DejaVuSans-20"/>
      <use x="482.03125" xlink:href="#DejaVuSans-20"/>
      <use x="513.818359" xlink:href="#DejaVuSans-20"/>
      <use x="545.605469" xlink:href="#DejaVuSans-20"/>
      <use x="577.392578" xlink:href="#DejaVuSans-20"/>
      <use x="609.179688" xlink:href="#DejaVuSans-20"/>
      <use x="640.966797" xlink:href="#DejaVuSans-20"/>
      <use x="672.753906" xlink:href="#DejaVuSans-20"/>
      <use x="704.541016" xlink:href="#DejaVuSans-20"/>
      <use x="736.328125" xlink:href="#DejaVuSans-20"/>
      <use x="768.115234" xlink:href="#DejaVuSans-20"/>
      <use x="799.902344" xlink:href="#DejaVuSans-20"/>
      <use x="831.689453" xlink:href="#DejaVuSans-20"/>
      <use x="863.476562" xlink:href="#DejaVuSans-20"/>
      <use x="895.263672" xlink:href="#DejaVuSans-20"/>
      <use x="927.050781" xlink:href="#DejaVuSans-20"/>
      <use x="958.837891" xlink:href="#DejaVuSans-20"/>
      <use x="990.625" xlink:href="#DejaVuSans-20"/>
      <use x="1022.412109" xlink:href="#DejaVuSans-20"/>
      <use x="1054.199219" xlink:href="#DejaVuSans-20"/>
      <use x="1085.986328" xlink:href="#DejaVuSans-20"/>
      <use x="1117.773438" xlink:href="#DejaVuSans-20"/>
      <use x="1149.560547" xlink:href="#DejaVuSans-20"/>
      <use x="1181.347656" xlink:href="#DejaVuSans-20"/>
      <use x="1213.134766" xlink:href="#DejaVuSans-20"/>
      <use x="1244.921875" xlink:href="#DejaVuSans-20"/>
     </g>
    </g>
   </g>
   <g id="matplotlib.axis_2">
    <g id="ytick_1">
     <g id="line2d_8">
      <defs>
       <path d="M 0 0 
L -3.5 0 
" id="m01f1538b92" style="stroke:#000000;stroke-width:0.8;"/>
      </defs>
      <g>
       <use style="stroke:#000000;stroke-width:0.8;" x="47.675" xlink:href="#m01f1538b92" y="244.588257"/>
      </g>
     </g>
     <g id="text_9">
      <!-- 0.4 -->
      <defs>
       <path d="M 31.78125 66.40625 
Q 24.171875 66.40625 20.328125 58.90625 
Q 16.5 51.421875 16.5 36.375 
Q 16.5 21.390625 20.328125 13.890625 
Q 24.171875 6.390625 31.78125 6.390625 
Q 39.453125 6.390625 43.28125 13.890625 
Q 47.125 21.390625 47.125 36.375 
Q 47.125 51.421875 43.28125 58.90625 
Q 39.453125 66.40625 31.78125 66.40625 
z
M 31.78125 74.21875 
Q 44.046875 74.21875 50.515625 64.515625 
Q 56.984375 54.828125 56.984375 36.375 
Q 56.984375 17.96875 50.515625 8.265625 
Q 44.046875 -1.421875 31.78125 -1.421875 
Q 19.53125 -1.421875 13.0625 8.265625 
Q 6.59375 17.96875 6.59375 36.375 
Q 6.59375 54.828125 13.0625 64.515625 
Q 19.53125 74.21875 31.78125 74.21875 
z
" id="DejaVuSans-30"/>
       <path d="M 10.6875 12.40625 
L 21 12.40625 
L 21 0 
L 10.6875 0 
z
" id="DejaVuSans-2e"/>
      </defs>
      <g transform="translate(24.771875 248.387476)scale(0.1 -0.1)">
       <use xlink:href="#DejaVuSans-30"/>
       <use x="63.623047" xlink:href="#DejaVuSans-2e"/>
       <use x="95.410156" xlink:href="#DejaVuSans-34"/>
      </g>
     </g>
    </g>
    <g id="ytick_2">
     <g id="line2d_9">
      <g>
       <use style="stroke:#000000;stroke-width:0.8;" x="47.675" xlink:href="#m01f1538b92" y="193.949016"/>
      </g>
     </g>
     <g id="text_10">
      <!-- 0.5 -->
      <g transform="translate(24.771875 197.748235)scale(0.1 -0.1)">
       <use xlink:href="#DejaVuSans-30"/>
       <use x="63.623047" xlink:href="#DejaVuSans-2e"/>
       <use x="95.410156" xlink:href="#DejaVuSans-35"/>
      </g>
     </g>
    </g>
    <g id="ytick_3">
     <g id="line2d_10">
      <g>
       <use style="stroke:#000000;stroke-width:0.8;" x="47.675" xlink:href="#m01f1538b92" y="143.309775"/>
      </g>
     </g>
     <g id="text_11">
      <!-- 0.6 -->
      <g transform="translate(24.771875 147.108993)scale(0.1 -0.1)">
       <use xlink:href="#DejaVuSans-30"/>
       <use x="63.623047" xlink:href="#DejaVuSans-2e"/>
       <use x="95.410156" xlink:href="#DejaVuSans-36"/>
      </g>
     </g>
    </g>
    <g id="ytick_4">
     <g id="line2d_11">
      <g>
       <use style="stroke:#000000;stroke-width:0.8;" x="47.675" xlink:href="#m01f1538b92" y="92.670533"/>
      </g>
     </g>
     <g id="text_12">
      <!-- 0.7 -->
      <g transform="translate(24.771875 96.469752)scale(0.1 -0.1)">
       <use xlink:href="#DejaVuSans-30"/>
       <use x="63.623047" xlink:href="#DejaVuSans-2e"/>
       <use x="95.410156" xlink:href="#DejaVuSans-37"/>
      </g>
     </g>
    </g>
    <g id="ytick_5">
     <g id="line2d_12">
      <g>
       <use style="stroke:#000000;stroke-width:0.8;" x="47.675" xlink:href="#m01f1538b92" y="42.031292"/>
      </g>
     </g>
     <g id="text_13">
      <!-- 0.8 -->
      <defs>
       <path d="M 31.78125 34.625 
Q 24.75 34.625 20.71875 30.859375 
Q 16.703125 27.09375 16.703125 20.515625 
Q 16.703125 13.921875 20.71875 10.15625 
Q 24.75 6.390625 31.78125 6.390625 
Q 38.8125 6.390625 42.859375 10.171875 
Q 46.921875 13.96875 46.921875 20.515625 
Q 46.921875 27.09375 42.890625 30.859375 
Q 38.875 34.625 31.78125 34.625 
z
M 21.921875 38.8125 
Q 15.578125 40.375 12.03125 44.71875 
Q 8.5 49.078125 8.5 55.328125 
Q 8.5 64.0625 14.71875 69.140625 
Q 20.953125 74.21875 31.78125 74.21875 
Q 42.671875 74.21875 48.875 69.140625 
Q 55.078125 64.0625 55.078125 55.328125 
Q 55.078125 49.078125 51.53125 44.71875 
Q 48 40.375 41.703125 38.8125 
Q 48.828125 37.15625 52.796875 32.3125 
Q 56.78125 27.484375 56.78125 20.515625 
Q 56.78125 9.90625 50.3125 4.234375 
Q 43.84375 -1.421875 31.78125 -1.421875 
Q 19.734375 -1.421875 13.25 4.234375 
Q 6.78125 9.90625 6.78125 20.515625 
Q 6.78125 27.484375 10.78125 32.3125 
Q 14.796875 37.15625 21.921875 38.8125 
z
M 18.3125 54.390625 
Q 18.3125 48.734375 21.84375 45.5625 
Q 25.390625 42.390625 31.78125 42.390625 
Q 38.140625 42.390625 41.71875 45.5625 
Q 45.3125 48.734375 45.3125 54.390625 
Q 45.3125 60.0625 41.71875 63.234375 
Q 38.140625 66.40625 31.78125 66.40625 
Q 25.390625 66.40625 21.84375 63.234375 
Q 18.3125 60.0625 18.3125 54.390625 
z
" id="DejaVuSans-38"/>
      </defs>
      <g transform="translate(24.771875 45.830511)scale(0.1 -0.1)">
       <use xlink:href="#DejaVuSans-30"/>
       <use x="63.623047" xlink:href="#DejaVuSans-2e"/>
       <use x="95.410156" xlink:href="#DejaVuSans-38"/>
      </g>
     </g>
    </g>
    <g id="text_14">
     <!-- Pearson Correlation w.r.t. Original -->
     <defs>
      <path d="M 19.671875 64.796875 
L 19.671875 37.40625 
L 32.078125 37.40625 
Q 38.96875 37.40625 42.71875 40.96875 
Q 46.484375 44.53125 46.484375 51.125 
Q 46.484375 57.671875 42.71875 61.234375 
Q 38.96875 64.796875 32.078125 64.796875 
z
M 9.8125 72.90625 
L 32.078125 72.90625 
Q 44.34375 72.90625 50.609375 67.359375 
Q 56.890625 61.8125 56.890625 51.125 
Q 56.890625 40.328125 50.609375 34.8125 
Q 44.34375 29.296875 32.078125 29.296875 
L 19.671875 29.296875 
L 19.671875 0 
L 9.8125 0 
z
" id="DejaVuSans-50"/>
      <path d="M 41.109375 46.296875 
Q 39.59375 47.171875 37.8125 47.578125 
Q 36.03125 48 33.890625 48 
Q 26.265625 48 22.1875 43.046875 
Q 18.109375 38.09375 18.109375 28.8125 
L 18.109375 0 
L 9.078125 0 
L 9.078125 54.6875 
L 18.109375 54.6875 
L 18.109375 46.1875 
Q 20.953125 51.171875 25.484375 53.578125 
Q 30.03125 56 36.53125 56 
Q 37.453125 56 38.578125 55.875 
Q 39.703125 55.765625 41.0625 55.515625 
z
" id="DejaVuSans-72"/>
      <path d="M 44.28125 53.078125 
L 44.28125 44.578125 
Q 40.484375 46.53125 36.375 47.5 
Q 32.28125 48.484375 27.875 48.484375 
Q 21.1875 48.484375 17.84375 46.4375 
Q 14.5 44.390625 14.5 40.28125 
Q 14.5 37.15625 16.890625 35.375 
Q 19.28125 33.59375 26.515625 31.984375 
L 29.59375 31.296875 
Q 39.15625 29.25 43.1875 25.515625 
Q 47.21875 21.78125 47.21875 15.09375 
Q 47.21875 7.46875 41.1875 3.015625 
Q 35.15625 -1.421875 24.609375 -1.421875 
Q 20.21875 -1.421875 15.453125 -0.5625 
Q 10.6875 0.296875 5.421875 2 
L 5.421875 11.28125 
Q 10.40625 8.6875 15.234375 7.390625 
Q 20.0625 6.109375 24.8125 6.109375 
Q 31.15625 6.109375 34.5625 8.28125 
Q 37.984375 10.453125 37.984375 14.40625 
Q 37.984375 18.0625 35.515625 20.015625 
Q 33.0625 21.96875 24.703125 23.78125 
L 21.578125 24.515625 
Q 13.234375 26.265625 9.515625 29.90625 
Q 5.8125 33.546875 5.8125 39.890625 
Q 5.8125 47.609375 11.28125 51.796875 
Q 16.75 56 26.8125 56 
Q 31.78125 56 36.171875 55.265625 
Q 40.578125 54.546875 44.28125 53.078125 
z
" id="DejaVuSans-73"/>
      <path d="M 30.609375 48.390625 
Q 23.390625 48.390625 19.1875 42.75 
Q 14.984375 37.109375 14.984375 27.296875 
Q 14.984375 17.484375 19.15625 11.84375 
Q 23.34375 6.203125 30.609375 6.203125 
Q 37.796875 6.203125 41.984375 11.859375 
Q 46.1875 17.53125 46.1875 27.296875 
Q 46.1875 37.015625 41.984375 42.703125 
Q 37.796875 48.390625 30.609375 48.390625 
z
M 30.609375 56 
Q 42.328125 56 49.015625 48.375 
Q 55.71875 40.765625 55.71875 27.296875 
Q 55.71875 13.875 49.015625 6.21875 
Q 42.328125 -1.421875 30.609375 -1.421875 
Q 18.84375 -1.421875 12.171875 6.21875 
Q 5.515625 13.875 5.515625 27.296875 
Q 5.515625 40.765625 12.171875 48.375 
Q 18.84375 56 30.609375 56 
z
" id="DejaVuSans-6f"/>
      <path d="M 54.890625 33.015625 
L 54.890625 0 
L 45.90625 0 
L 45.90625 32.71875 
Q 45.90625 40.484375 42.875 44.328125 
Q 39.84375 48.1875 33.796875 48.1875 
Q 26.515625 48.1875 22.3125 43.546875 
Q 18.109375 38.921875 18.109375 30.90625 
L 18.109375 0 
L 9.078125 0 
L 9.078125 54.6875 
L 18.109375 54.6875 
L 18.109375 46.1875 
Q 21.34375 51.125 25.703125 53.5625 
Q 30.078125 56 35.796875 56 
Q 45.21875 56 50.046875 50.171875 
Q 54.890625 44.34375 54.890625 33.015625 
z
" id="DejaVuSans-6e"/>
      <path d="M 64.40625 67.28125 
L 64.40625 56.890625 
Q 59.421875 61.53125 53.78125 63.8125 
Q 48.140625 66.109375 41.796875 66.109375 
Q 29.296875 66.109375 22.65625 58.46875 
Q 16.015625 50.828125 16.015625 36.375 
Q 16.015625 21.96875 22.65625 14.328125 
Q 29.296875 6.6875 41.796875 6.6875 
Q 48.140625 6.6875 53.78125 8.984375 
Q 59.421875 11.28125 64.40625 15.921875 
L 64.40625 5.609375 
Q 59.234375 2.09375 53.4375 0.328125 
Q 47.65625 -1.421875 41.21875 -1.421875 
Q 24.65625 -1.421875 15.125 8.703125 
Q 5.609375 18.84375 5.609375 36.375 
Q 5.609375 53.953125 15.125 64.078125 
Q 24.65625 74.21875 41.21875 74.21875 
Q 47.75 74.21875 53.53125 72.484375 
Q 59.328125 70.75 64.40625 67.28125 
z
" id="DejaVuSans-43"/>
      <path d="M 9.421875 75.984375 
L 18.40625 75.984375 
L 18.40625 0 
L 9.421875 0 
z
" id="DejaVuSans-6c"/>
      <path d="M 9.421875 54.6875 
L 18.40625 54.6875 
L 18.40625 0 
L 9.421875 0 
z
M 9.421875 75.984375 
L 18.40625 75.984375 
L 18.40625 64.59375 
L 9.421875 64.59375 
z
" id="DejaVuSans-69"/>
      <path d="M 4.203125 54.6875 
L 13.1875 54.6875 
L 24.421875 12.015625 
L 35.59375 54.6875 
L 46.1875 54.6875 
L 57.421875 12.015625 
L 68.609375 54.6875 
L 77.59375 54.6875 
L 63.28125 0 
L 52.6875 0 
L 40.921875 44.828125 
L 29.109375 0 
L 18.5 0 
z
" id="DejaVuSans-77"/>
      <path d="M 45.40625 27.984375 
Q 45.40625 37.75 41.375 43.109375 
Q 37.359375 48.484375 30.078125 48.484375 
Q 22.859375 48.484375 18.828125 43.109375 
Q 14.796875 37.75 14.796875 27.984375 
Q 14.796875 18.265625 18.828125 12.890625 
Q 22.859375 7.515625 30.078125 7.515625 
Q 37.359375 7.515625 41.375 12.890625 
Q 45.40625 18.265625 45.40625 27.984375 
z
M 54.390625 6.78125 
Q 54.390625 -7.171875 48.1875 -13.984375 
Q 42 -20.796875 29.203125 -20.796875 
Q 24.46875 -20.796875 20.265625 -20.09375 
Q 16.0625 -19.390625 12.109375 -17.921875 
L 12.109375 -9.1875 
Q 16.0625 -11.328125 19.921875 -12.34375 
Q 23.78125 -13.375 27.78125 -13.375 
Q 36.625 -13.375 41.015625 -8.765625 
Q 45.40625 -4.15625 45.40625 5.171875 
L 45.40625 9.625 
Q 42.625 4.78125 38.28125 2.390625 
Q 33.9375 0 27.875 0 
Q 17.828125 0 11.671875 7.65625 
Q 5.515625 15.328125 5.515625 27.984375 
Q 5.515625 40.671875 11.671875 48.328125 
Q 17.828125 56 27.875 56 
Q 33.9375 56 38.28125 53.609375 
Q 42.625 51.21875 45.40625 46.390625 
L 45.40625 54.6875 
L 54.390625 54.6875 
z
" id="DejaVuSans-67"/>
     </defs>
     <g transform="translate(18.692188 215.248437)rotate(-90)scale(0.1 -0.1)">
      <use xlink:href="#DejaVuSans-50"/>
      <use x="60.255859" xlink:href="#DejaVuSans-65"/>
      <use x="121.779297" xlink:href="#DejaVuSans-61"/>
      <use x="183.058594" xlink:href="#DejaVuSans-72"/>
      <use x="224.171875" xlink:href="#DejaVuSans-73"/>
      <use x="276.271484" xlink:href="#DejaVuSans-6f"/>
      <use x="337.453125" xlink:href="#DejaVuSans-6e"/>
      <use x="400.832031" xlink:href="#DejaVuSans-20"/>
      <use x="432.619141" xlink:href="#DejaVuSans-43"/>
      <use x="502.443359" xlink:href="#DejaVuSans-6f"/>
      <use x="563.625" xlink:href="#DejaVuSans-72"/>
      <use x="604.722656" xlink:href="#DejaVuSans-72"/>
      <use x="645.804688" xlink:href="#DejaVuSans-65"/>
      <use x="707.328125" xlink:href="#DejaVuSans-6c"/>
      <use x="735.111328" xlink:href="#DejaVuSans-61"/>
      <use x="796.390625" xlink:href="#DejaVuSans-74"/>
      <use x="835.599609" xlink:href="#DejaVuSans-69"/>
      <use x="863.382812" xlink:href="#DejaVuSans-6f"/>
      <use x="924.564453" xlink:href="#DejaVuSans-6e"/>
      <use x="987.943359" xlink:href="#DejaVuSans-20"/>
      <use x="1019.730469" xlink:href="#DejaVuSans-77"/>
      <use x="1101.376953" xlink:href="#DejaVuSans-2e"/>
      <use x="1133.164062" xlink:href="#DejaVuSans-72"/>
      <use x="1174.136719" xlink:href="#DejaVuSans-2e"/>
      <use x="1205.923828" xlink:href="#DejaVuSans-74"/>
      <use x="1245.132812" xlink:href="#DejaVuSans-2e"/>
      <use x="1276.919922" xlink:href="#DejaVuSans-20"/>
      <use x="1308.707031" xlink:href="#DejaVuSans-4f"/>
      <use x="1387.417969" xlink:href="#DejaVuSans-72"/>
      <use x="1428.53125" xlink:href="#DejaVuSans-69"/>
      <use x="1456.314453" xlink:href="#DejaVuSans-67"/>
      <use x="1519.791016" xlink:href="#DejaVuSans-69"/>
      <use x="1547.574219" xlink:href="#DejaVuSans-6e"/>
      <use x="1610.953125" xlink:href="#DejaVuSans-61"/>
      <use x="1672.232422" xlink:href="#DejaVuSans-6c"/>
     </g>
    </g>
   </g>
   <g id="line2d_13">
    <path clip-path="url(#pf7ce3c87a1)" d="M 47.675 203.367137 
L 50.456598 192.753937 
L 53.238195 183.045493 
L 56.019793 174.185854 
L 58.80139 166.119068 
L 61.582988 158.789186 
L 64.364585 152.140256 
L 67.146183 146.116327 
L 69.927781 140.661449 
L 72.709378 135.71967 
L 75.490976 131.235039 
L 78.272573 127.151606 
L 81.054171 123.413419 
L 84.531168 119.14278 
L 88.008165 115.242591 
L 91.485162 111.646403 
L 95.657558 107.639199 
L 101.220753 102.631768 
L 113.042543 92.103055 
L 117.214939 88.046435 
L 121.387336 83.673545 
L 126.950531 77.503855 
L 138.772321 64.302912 
L 142.944717 60.002985 
L 146.421714 56.702761 
L 149.898711 53.732518 
L 152.680308 51.639259 
L 155.461906 49.815426 
L 158.243504 48.249191 
L 161.025101 46.926746 
L 163.806699 45.834284 
L 166.588296 44.957996 
L 169.369894 44.284074 
L 172.151491 43.798709 
L 175.628488 43.436127 
L 179.105485 43.319623 
L 182.582482 43.422228 
L 186.754879 43.796614 
L 190.927275 44.410829 
L 195.099671 45.256001 
L 199.272068 46.328258 
L 203.444464 47.623731 
L 207.61686 49.138549 
L 211.789257 50.868841 
L 215.961653 52.810738 
L 220.829449 55.338565 
L 225.697245 58.149722 
L 229.869641 60.806847 
L 234.042037 63.71725 
L 238.214434 66.904383 
L 242.38683 70.3917 
L 246.559226 74.202657 
L 250.731623 78.360706 
L 254.904019 82.889302 
L 255.599419 83.681741 
L 255.599419 83.681741 
" style="fill:none;stroke:#1f77b4;stroke-linecap:square;stroke-width:1.5;"/>
   </g>
   <g id="line2d_14">
    <path clip-path="url(#pf7ce3c87a1)" d="M 47.675 105.23713 
L 50.456598 101.721801 
L 53.238195 98.532403 
L 56.019793 95.643529 
L 58.80139 93.029773 
L 62.278387 90.110757 
L 65.755384 87.532292 
L 69.232381 85.244756 
L 72.709378 83.198526 
L 76.881775 80.991708 
L 82.44497 78.330451 
L 90.789762 74.611799 
L 108.870147 66.644148 
L 115.128741 63.622219 
L 121.387336 60.34947 
L 129.732128 55.969377 
L 133.904525 54.008381 
L 137.381522 52.593759 
L 140.858519 51.443791 
L 143.640116 50.755362 
L 146.421714 50.306589 
L 149.203311 50.128707 
L 151.28951 50.191856 
L 153.375708 50.435025 
L 156.157305 51.019586 
L 158.938903 51.86044 
L 161.720501 52.912567 
L 165.197497 54.456239 
L 170.065293 56.886361 
L 179.105485 61.469917 
L 182.582482 62.993417 
L 185.36408 64.023596 
L 188.145677 64.842808 
L 191.622674 65.611531 
L 197.18587 66.552118 
L 202.053665 67.44242 
L 205.530662 68.322195 
L 208.31226 69.270911 
L 211.093857 70.508516 
L 213.180056 71.665842 
L 215.266254 73.050368 
L 217.352452 74.68982 
L 219.43865 76.611929 
L 221.524848 78.844476 
L 223.611047 81.420279 
L 225.697245 84.381224 
L 227.783443 87.770144 
L 229.869641 91.629872 
L 231.955839 96.003242 
L 234.042037 100.933088 
L 236.128236 106.462242 
L 238.214434 112.633537 
L 240.300632 119.489809 
L 242.38683 127.073888 
L 244.473028 135.42861 
L 246.559226 144.596808 
L 248.645425 154.621314 
L 250.731623 165.544963 
L 252.817821 177.410587 
L 255.599419 194.770748 
L 255.599419 194.770748 
" style="fill:none;stroke:#ff7f0e;stroke-linecap:square;stroke-width:1.5;"/>
   </g>
   <g id="line2d_15">
    <path clip-path="url(#pf7ce3c87a1)" d="M 47.675 134.196042 
L 55.324393 121.61649 
L 74.795576 89.292866 
L 80.358771 80.549558 
L 85.226567 73.267918 
L 90.094363 66.398868 
L 94.266759 60.87579 
L 98.439156 55.720858 
L 102.611552 50.963932 
L 106.088549 47.325404 
L 109.565546 44.001285 
L 113.042543 41.008857 
L 116.51954 38.365399 
L 119.301138 36.511503 
L 122.082735 34.883542 
L 124.864333 33.469626 
L 127.64593 32.257847 
L 131.122927 31.009238 
L 134.599924 30.034605 
L 138.076921 29.31069 
L 141.553918 28.814237 
L 145.030915 28.521989 
L 149.203311 28.408095 
L 153.375708 28.515503 
L 157.548104 28.837619 
L 161.720501 29.408472 
L 165.197497 30.100572 
L 168.674494 31.011963 
L 172.151491 32.163806 
L 175.628488 33.577262 
L 179.105485 35.273495 
L 182.582482 37.273666 
L 185.36408 39.106859 
L 188.145677 41.158417 
L 191.622674 44.035714 
L 195.099671 47.260761 
L 198.576668 50.833611 
L 202.053665 54.754313 
L 205.530662 59.022919 
L 209.007659 63.63948 
L 212.484656 68.604047 
L 215.961653 73.91667 
L 219.43865 79.577402 
L 223.611047 86.829137 
L 227.783443 94.571635 
L 231.955839 102.788608 
L 236.128236 111.463641 
L 240.996031 122.141546 
L 245.863827 133.394507 
L 250.731623 145.196455 
L 255.599419 157.521321 
L 255.599419 157.521321 
" style="fill:none;stroke:#2ca02c;stroke-linecap:square;stroke-width:1.5;"/>
   </g>
   <g id="line2d_16">
    <path clip-path="url(#pf7ce3c87a1)" d="M 47.675 235.659091 
L 50.456598 231.11056 
L 53.933595 224.923571 
L 57.410592 218.248456 
L 61.582988 209.697934 
L 66.450784 199.138483 
L 72.709378 184.949995 
L 88.703564 148.371337 
L 93.57136 137.890242 
L 97.743756 129.371722 
L 101.916153 121.388375 
L 105.39315 115.216634 
L 108.870147 109.544015 
L 111.651744 105.404226 
L 114.433342 101.650625 
L 117.214939 98.312875 
L 119.996537 95.411702 
L 122.082735 93.518313 
L 124.168933 91.861159 
L 126.255131 90.434929 
L 128.34133 89.234313 
L 130.427528 88.254002 
L 132.513726 87.488683 
L 134.599924 86.933048 
L 136.686122 86.581786 
L 138.772321 86.429587 
L 140.858519 86.471139 
L 142.944717 86.701134 
L 145.030915 87.11426 
L 147.117113 87.705208 
L 149.898711 88.760571 
L 152.680308 90.109765 
L 155.461906 91.727829 
L 158.938903 94.064741 
L 162.4159 96.672528 
L 167.283696 100.618595 
L 178.410086 109.777483 
L 181.887083 112.350172 
L 185.36408 114.639452 
L 188.145677 116.213193 
L 190.927275 117.547042 
L 193.708873 118.654482 
L 196.49047 119.549347 
L 199.272068 120.245468 
L 202.749065 120.857209 
L 206.226062 121.207044 
L 209.703059 121.32199 
L 213.180056 121.229063 
L 217.352452 120.881201 
L 221.524848 120.319617 
L 227.783443 119.219732 
L 235.432836 117.895098 
L 239.605233 117.392145 
L 243.08223 117.187438 
L 245.863827 117.206874 
L 248.645425 117.422167 
L 251.427022 117.863791 
L 254.20862 118.562219 
L 255.599419 119.017257 
L 255.599419 119.017257 
" style="fill:none;stroke:#d62728;stroke-linecap:square;stroke-width:1.5;"/>
   </g>
   <g id="line2d_17">
    <path clip-path="url(#pf7ce3c87a1)" d="M 47.675 120.542947 
L 51.151997 115.6869 
L 54.628994 111.277678 
L 58.105991 107.276298 
L 61.582988 103.643778 
L 65.059985 100.341138 
L 68.536982 97.329395 
L 72.709378 94.044402 
L 76.881775 91.054808 
L 81.74957 87.850435 
L 87.312765 84.44555 
L 93.57136 80.868605 
L 100.525354 77.143219 
L 109.565546 72.569267 
L 123.473534 65.821622 
L 128.34133 63.667385 
L 132.513726 62.049113 
L 135.990723 60.921261 
L 139.46772 60.042365 
L 142.249317 59.548932 
L 145.030915 59.267008 
L 147.812513 59.219782 
L 150.59411 59.430445 
L 153.375708 59.918977 
L 156.157305 60.661815 
L 159.634302 61.864189 
L 163.806699 63.565205 
L 172.846891 67.357956 
L 176.323888 68.542797 
L 179.105485 69.266349 
L 181.887083 69.730226 
L 183.973281 69.874251 
L 186.059479 69.817439 
L 188.145677 69.541483 
L 190.231876 69.056983 
L 192.318074 68.384592 
L 195.099671 67.231508 
L 197.881269 65.830103 
L 201.358266 63.803758 
L 205.530662 61.09568 
L 218.047851 52.759712 
L 221.524848 50.813204 
L 224.306446 49.505429 
L 226.392644 48.72165 
L 228.478842 48.145742 
L 230.56504 47.812776 
L 232.651239 47.757822 
L 234.737437 48.015951 
L 236.128236 48.379292 
L 237.519034 48.907759 
L 238.909833 49.611744 
L 240.300632 50.501639 
L 241.691431 51.587835 
L 243.08223 52.880723 
L 244.473028 54.390694 
L 245.863827 56.128141 
L 247.950025 59.183558 
L 250.036223 62.809245 
L 252.122422 67.040274 
L 254.20862 71.911715 
L 255.599419 75.532447 
L 255.599419 75.532447 
" style="fill:none;stroke:#9467bd;stroke-linecap:square;stroke-width:1.5;"/>
   </g>
   <g id="line2d_18">
    <path clip-path="url(#pf7ce3c87a1)" d="M 47.675 71.670375 
L 50.456598 64.705902 
L 53.238195 58.470355 
L 56.019793 52.925183 
L 58.105991 49.196171 
L 60.192189 45.817545 
L 62.278387 42.773043 
L 64.364585 40.046399 
L 66.450784 37.62135 
L 68.536982 35.481632 
L 70.62318 33.610981 
L 72.709378 31.993133 
L 74.795576 30.611825 
L 76.881775 29.450792 
L 78.967973 28.49377 
L 81.74957 27.506983 
L 84.531168 26.816064 
L 87.312765 26.388021 
L 90.094363 26.19211 
L 92.875961 26.197603 
L 96.352958 26.440878 
L 100.525354 27.000316 
L 106.088549 28.029891 
L 116.51954 30.033464 
L 120.691936 30.582873 
L 124.864333 30.928857 
L 129.732128 31.093017 
L 134.599924 31.019278 
L 139.46772 30.728651 
L 145.030915 30.157885 
L 150.59411 29.362645 
L 157.548104 28.120473 
L 169.369894 25.969902 
L 174.23769 25.312195 
L 178.410086 24.953409 
L 181.887083 24.840909 
L 185.36408 24.931855 
L 188.841077 25.25389 
L 192.318074 25.796474 
L 196.49047 26.694865 
L 201.358266 28.015551 
L 206.921461 29.779103 
L 227.088043 36.457444 
L 231.26044 37.464619 
L 234.737437 38.073193 
L 237.519034 38.373932 
L 240.300632 38.482199 
L 243.08223 38.373039 
L 245.863827 38.021499 
L 248.645425 37.402625 
L 251.427022 36.491463 
L 253.51322 35.601266 
L 255.599419 34.522094 
L 255.599419 34.522094 
" style="fill:none;stroke:#8c564b;stroke-linecap:square;stroke-width:1.5;"/>
   </g>
   <g id="line2d_19">
    <path clip-path="url(#pf7ce3c87a1)" d="M 47.675 65.558296 
L 49.761198 70.073522 
L 51.847396 73.940523 
L 53.933595 77.196042 
L 56.019793 79.87682 
L 57.410592 81.362851 
L 58.80139 82.620658 
L 60.192189 83.661128 
L 61.582988 84.495149 
L 62.973787 85.133606 
L 64.364585 85.587386 
L 65.755384 85.867377 
L 67.146183 85.984464 
L 69.232381 85.878466 
L 71.318579 85.467173 
L 73.404778 84.787328 
L 75.490976 83.875673 
L 78.272573 82.363046 
L 81.054171 80.590726 
L 85.226567 77.628058 
L 92.875961 71.81017 
L 98.439156 67.719093 
L 101.916153 65.408117 
L 104.69775 63.768533 
L 107.479348 62.36451 
L 110.260945 61.241841 
L 112.347144 60.612023 
L 114.433342 60.185543 
L 116.51954 59.981719 
L 118.605738 60.016131 
L 120.691936 60.274682 
L 122.778134 60.729119 
L 125.559732 61.590765 
L 128.34133 62.683097 
L 132.513726 64.607185 
L 142.249317 69.253918 
L 145.030915 70.319691 
L 147.812513 71.145924 
L 149.898711 71.567991 
L 151.984909 71.789235 
L 154.071107 71.795738 
L 156.157305 71.608827 
L 158.938903 71.104778 
L 161.720501 70.367355 
L 165.197497 69.213559 
L 177.714687 64.76289 
L 180.496284 64.101311 
L 183.277882 63.695579 
L 185.36408 63.597153 
L 187.450278 63.703609 
L 189.536476 64.019374 
L 191.622674 64.530678 
L 194.404272 65.491761 
L 197.18587 66.740874 
L 199.967467 68.243965 
L 203.444464 70.428101 
L 206.921461 72.889351 
L 211.093857 76.114988 
L 217.352452 81.270641 
L 225.001845 87.56232 
L 228.478842 90.152712 
L 231.26044 91.972618 
L 234.042037 93.490801 
L 236.128236 94.388476 
L 238.214434 95.046137 
L 240.300632 95.433659 
L 242.38683 95.520915 
L 243.777629 95.397394 
L 245.168428 95.118107 
L 246.559226 94.674126 
L 247.950025 94.056526 
L 249.340824 93.25638 
L 250.731623 92.264762 
L 252.122422 91.072746 
L 253.51322 89.671405 
L 254.904019 88.051814 
L 255.599419 87.157384 
L 255.599419 87.157384 
" style="fill:none;stroke:#e377c2;stroke-linecap:square;stroke-width:1.5;"/>
   </g>
   <g id="line2d_20">
    <path clip-path="url(#pf7ce3c87a1)" d="M 47.675 171.687818 
L 50.456598 159.382483 
L 53.238195 148.355842 
L 55.324393 140.880842 
L 57.410592 134.052841 
L 59.49679 127.840868 
L 61.582988 122.213952 
L 63.669186 117.141122 
L 65.755384 112.591405 
L 67.841582 108.533832 
L 69.927781 104.93743 
L 72.013979 101.771228 
L 74.100177 99.004255 
L 76.186375 96.605539 
L 78.272573 94.54411 
L 80.358771 92.788995 
L 82.44497 91.309225 
L 84.531168 90.076082 
L 86.617366 89.068488 
L 88.703564 88.266983 
L 90.789762 87.652103 
L 93.57136 87.088931 
L 96.352958 86.776807 
L 99.134555 86.669598 
L 102.611552 86.75347 
L 107.479348 87.116142 
L 115.128741 87.717048 
L 118.605738 87.784341 
L 122.778134 87.634857 
L 131.122927 87.018347 
L 135.990723 86.765487 
L 139.46772 86.763958 
L 142.944717 86.988946 
L 145.726314 87.377851 
L 148.507912 87.990277 
L 151.28951 88.861137 
L 154.071107 90.017719 
L 156.852705 91.442797 
L 159.634302 93.103035 
L 163.111299 95.4582 
L 167.283696 98.608864 
L 172.151491 102.589707 
L 186.754879 114.766639 
L 190.927275 117.861878 
L 195.099671 120.712991 
L 199.967467 123.756155 
L 204.835263 126.523212 
L 209.703059 129.044411 
L 215.266254 131.663533 
L 220.829449 134.046195 
L 230.56504 137.898295 
L 236.823635 140.507826 
L 240.996031 142.457774 
L 245.168428 144.664189 
L 248.645425 146.753362 
L 252.122422 149.116954 
L 255.599419 151.798745 
L 255.599419 151.798745 
" style="fill:none;stroke:#7f7f7f;stroke-linecap:square;stroke-width:1.5;"/>
   </g>
   <g id="line2d_21">
    <path clip-path="url(#pf7ce3c87a1)" d="M 47.675 200.642058 
L 50.456598 187.270739 
L 53.238195 175.044618 
L 56.019793 163.90607 
L 58.80139 153.79747 
L 61.582988 144.661193 
L 64.364585 136.439614 
L 67.146183 129.075108 
L 69.927781 122.51005 
L 72.013979 118.076228 
L 74.100177 114.035372 
L 76.186375 110.363169 
L 78.272573 107.035311 
L 80.358771 104.027485 
L 82.44497 101.315382 
L 84.531168 98.876346 
L 86.617366 96.693326 
L 89.398964 94.153457 
L 92.180561 92.002916 
L 94.962159 90.204095 
L 97.743756 88.719389 
L 100.525354 87.51119 
L 103.306951 86.541892 
L 106.783948 85.608931 
L 110.260945 84.917043 
L 115.128741 84.213549 
L 122.778134 83.372304 
L 127.64593 83.033915 
L 131.818327 82.957096 
L 135.295324 83.092303 
L 138.772321 83.448115 
L 142.249317 84.061552 
L 145.030915 84.762673 
L 147.812513 85.671325 
L 150.59411 86.806464 
L 153.375708 88.18473 
L 156.157305 89.791326 
L 159.634302 92.063541 
L 163.806699 95.079503 
L 170.065293 99.928339 
L 177.714687 105.818784 
L 181.887083 108.75298 
L 185.36408 110.928229 
L 188.145677 112.440603 
L 190.927275 113.73762 
L 193.708873 114.825999 
L 196.49047 115.712737 
L 199.272068 116.404832 
L 202.053665 116.90928 
L 205.530662 117.286622 
L 209.007659 117.395364 
L 212.484656 117.249172 
L 215.961653 116.861712 
L 219.43865 116.246651 
L 222.915647 115.418667 
L 227.088043 114.190423 
L 232.651239 112.287248 
L 245.863827 107.614073 
L 250.036223 106.404383 
L 253.51322 105.597468 
L 255.599419 105.222197 
L 255.599419 105.222197 
" style="fill:none;stroke:#bcbd22;stroke-linecap:square;stroke-width:1.5;"/>
   </g>
   <g id="line2d_22">
    <path clip-path="url(#pf7ce3c87a1)" d="M 47.675 124.566693 
L 50.456598 119.697192 
L 53.238195 115.284312 
L 56.019793 111.301525 
L 58.80139 107.722302 
L 61.582988 104.520115 
L 64.364585 101.668436 
L 67.146183 99.140736 
L 69.927781 96.910487 
L 72.709378 94.95116 
L 75.490976 93.236228 
L 78.272573 91.739161 
L 81.74957 90.133787 
L 85.226567 88.777373 
L 89.398964 87.425239 
L 93.57136 86.319721 
L 98.439156 85.265393 
L 105.39315 84.026611 
L 117.214939 81.954415 
L 123.473534 80.575061 
L 136.686122 77.592365 
L 141.553918 76.752568 
L 145.726314 76.254783 
L 149.203311 76.040558 
L 152.680308 76.044126 
L 156.157305 76.287639 
L 159.634302 76.774502 
L 163.111299 77.506301 
L 166.588296 78.484624 
L 170.065293 79.711059 
L 173.54229 81.187194 
L 177.019287 82.914617 
L 180.496284 84.894915 
L 183.973281 87.129677 
L 187.450278 89.620031 
L 191.622674 92.905071 
L 197.881269 98.186739 
L 206.226062 105.230716 
L 210.398458 108.470922 
L 213.875455 110.905025 
L 216.657053 112.625834 
L 219.43865 114.105024 
L 222.220248 115.305256 
L 224.306446 115.997832 
L 226.392644 116.491225 
L 228.478842 116.76619 
L 230.56504 116.803479 
L 232.651239 116.583847 
L 234.737437 116.088048 
L 236.823635 115.296835 
L 238.909833 114.190961 
L 240.996031 112.751181 
L 243.08223 110.958249 
L 245.168428 108.792917 
L 247.254626 106.235941 
L 249.340824 103.268073 
L 251.427022 99.870067 
L 253.51322 96.022677 
L 255.599419 91.706657 
L 255.599419 91.706657 
" style="fill:none;stroke:#17becf;stroke-linecap:square;stroke-width:1.5;"/>
   </g>
   <g id="patch_3">
    <path d="M 47.675 246.2 
L 47.675 14.3 
" style="fill:none;stroke:#000000;stroke-linecap:square;stroke-linejoin:miter;stroke-width:0.8;"/>
   </g>
   <g id="patch_4">
    <path d="M 345.7 246.2 
L 345.7 14.3 
" style="fill:none;stroke:#000000;stroke-linecap:square;stroke-linejoin:miter;stroke-width:0.8;"/>
   </g>
   <g id="patch_5">
    <path d="M 47.675 246.2 
L 345.7 246.2 
" style="fill:none;stroke:#000000;stroke-linecap:square;stroke-linejoin:miter;stroke-width:0.8;"/>
   </g>
   <g id="patch_6">
    <path d="M 47.675 14.3 
L 345.7 14.3 
" style="fill:none;stroke:#000000;stroke-linecap:square;stroke-linejoin:miter;stroke-width:0.8;"/>
   </g>
   <g id="text_15">
    <!-- Grand Piano -->
    <defs>
     <path d="M 59.515625 10.40625 
L 59.515625 29.984375 
L 43.40625 29.984375 
L 43.40625 38.09375 
L 69.28125 38.09375 
L 69.28125 6.78125 
Q 63.578125 2.734375 56.6875 0.65625 
Q 49.8125 -1.421875 42 -1.421875 
Q 24.90625 -1.421875 15.25 8.5625 
Q 5.609375 18.5625 5.609375 36.375 
Q 5.609375 54.25 15.25 64.234375 
Q 24.90625 74.21875 42 74.21875 
Q 49.125 74.21875 55.546875 72.453125 
Q 61.96875 70.703125 67.390625 67.28125 
L 67.390625 56.78125 
Q 61.921875 61.421875 55.765625 63.765625 
Q 49.609375 66.109375 42.828125 66.109375 
Q 29.4375 66.109375 22.71875 58.640625 
Q 16.015625 51.171875 16.015625 36.375 
Q 16.015625 21.625 22.71875 14.15625 
Q 29.4375 6.6875 42.828125 6.6875 
Q 48.046875 6.6875 52.140625 7.59375 
Q 56.25 8.5 59.515625 10.40625 
z
" id="DejaVuSans-47"/>
     <path d="M 45.40625 46.390625 
L 45.40625 75.984375 
L 54.390625 75.984375 
L 54.390625 0 
L 45.40625 0 
L 45.40625 8.203125 
Q 42.578125 3.328125 38.25 0.953125 
Q 33.9375 -1.421875 27.875 -1.421875 
Q 17.96875 -1.421875 11.734375 6.484375 
Q 5.515625 14.40625 5.515625 27.296875 
Q 5.515625 40.1875 11.734375 48.09375 
Q 17.96875 56 27.875 56 
Q 33.9375 56 38.25 53.625 
Q 42.578125 51.265625 45.40625 46.390625 
z
M 14.796875 27.296875 
Q 14.796875 17.390625 18.875 11.75 
Q 22.953125 6.109375 30.078125 6.109375 
Q 37.203125 6.109375 41.296875 11.75 
Q 45.40625 17.390625 45.40625 27.296875 
Q 45.40625 37.203125 41.296875 42.84375 
Q 37.203125 48.484375 30.078125 48.484375 
Q 22.953125 48.484375 18.875 42.84375 
Q 14.796875 37.203125 14.796875 27.296875 
z
" id="DejaVuSans-64"/>
    </defs>
    <g style="fill:#1f77b4;" transform="translate(259.064826 81.656171)scale(0.1 -0.1)">
     <use xlink:href="#DejaVuSans-47"/>
     <use x="77.490234" xlink:href="#DejaVuSans-72"/>
     <use x="118.603516" xlink:href="#DejaVuSans-61"/>
     <use x="179.882812" xlink:href="#DejaVuSans-6e"/>
     <use x="243.261719" xlink:href="#DejaVuSans-64"/>
     <use x="306.738281" xlink:href="#DejaVuSans-20"/>
     <use x="338.525391" xlink:href="#DejaVuSans-50"/>
     <use x="398.796875" xlink:href="#DejaVuSans-69"/>
     <use x="426.580078" xlink:href="#DejaVuSans-61"/>
     <use x="487.859375" xlink:href="#DejaVuSans-6e"/>
     <use x="551.238281" xlink:href="#DejaVuSans-6f"/>
    </g>
   </g>
   <g id="text_16">
    <!-- Electric Piano -->
    <defs>
     <path d="M 9.8125 72.90625 
L 55.90625 72.90625 
L 55.90625 64.59375 
L 19.671875 64.59375 
L 19.671875 43.015625 
L 54.390625 43.015625 
L 54.390625 34.71875 
L 19.671875 34.71875 
L 19.671875 8.296875 
L 56.78125 8.296875 
L 56.78125 0 
L 9.8125 0 
z
" id="DejaVuSans-45"/>
    </defs>
    <g style="fill:#ff7f0e;" transform="translate(259.064826 202.366634)scale(0.1 -0.1)">
     <use xlink:href="#DejaVuSans-45"/>
     <use x="63.183594" xlink:href="#DejaVuSans-6c"/>
     <use x="90.966797" xlink:href="#DejaVuSans-65"/>
     <use x="152.490234" xlink:href="#DejaVuSans-63"/>
     <use x="207.470703" xlink:href="#DejaVuSans-74"/>
     <use x="246.679688" xlink:href="#DejaVuSans-72"/>
     <use x="287.792969" xlink:href="#DejaVuSans-69"/>
     <use x="315.576172" xlink:href="#DejaVuSans-63"/>
     <use x="370.556641" xlink:href="#DejaVuSans-20"/>
     <use x="402.34375" xlink:href="#DejaVuSans-50"/>
     <use x="462.615234" xlink:href="#DejaVuSans-69"/>
     <use x="490.398438" xlink:href="#DejaVuSans-61"/>
     <use x="551.677734" xlink:href="#DejaVuSans-6e"/>
     <use x="615.056641" xlink:href="#DejaVuSans-6f"/>
    </g>
   </g>
   <g id="text_17">
    <!-- Vibraphone -->
    <defs>
     <path d="M 28.609375 0 
L 0.78125 72.90625 
L 11.078125 72.90625 
L 34.1875 11.53125 
L 57.328125 72.90625 
L 67.578125 72.90625 
L 39.796875 0 
z
" id="DejaVuSans-56"/>
     <path d="M 48.6875 27.296875 
Q 48.6875 37.203125 44.609375 42.84375 
Q 40.53125 48.484375 33.40625 48.484375 
Q 26.265625 48.484375 22.1875 42.84375 
Q 18.109375 37.203125 18.109375 27.296875 
Q 18.109375 17.390625 22.1875 11.75 
Q 26.265625 6.109375 33.40625 6.109375 
Q 40.53125 6.109375 44.609375 11.75 
Q 48.6875 17.390625 48.6875 27.296875 
z
M 18.109375 46.390625 
Q 20.953125 51.265625 25.265625 53.625 
Q 29.59375 56 35.59375 56 
Q 45.5625 56 51.78125 48.09375 
Q 58.015625 40.1875 58.015625 27.296875 
Q 58.015625 14.40625 51.78125 6.484375 
Q 45.5625 -1.421875 35.59375 -1.421875 
Q 29.59375 -1.421875 25.265625 0.953125 
Q 20.953125 3.328125 18.109375 8.203125 
L 18.109375 0 
L 9.078125 0 
L 9.078125 75.984375 
L 18.109375 75.984375 
z
" id="DejaVuSans-62"/>
     <path d="M 18.109375 8.203125 
L 18.109375 -20.796875 
L 9.078125 -20.796875 
L 9.078125 54.6875 
L 18.109375 54.6875 
L 18.109375 46.390625 
Q 20.953125 51.265625 25.265625 53.625 
Q 29.59375 56 35.59375 56 
Q 45.5625 56 51.78125 48.09375 
Q 58.015625 40.1875 58.015625 27.296875 
Q 58.015625 14.40625 51.78125 6.484375 
Q 45.5625 -1.421875 35.59375 -1.421875 
Q 29.59375 -1.421875 25.265625 0.953125 
Q 20.953125 3.328125 18.109375 8.203125 
z
M 48.6875 27.296875 
Q 48.6875 37.203125 44.609375 42.84375 
Q 40.53125 48.484375 33.40625 48.484375 
Q 26.265625 48.484375 22.1875 42.84375 
Q 18.109375 37.203125 18.109375 27.296875 
Q 18.109375 17.390625 22.1875 11.75 
Q 26.265625 6.109375 33.40625 6.109375 
Q 40.53125 6.109375 44.609375 11.75 
Q 48.6875 17.390625 48.6875 27.296875 
z
" id="DejaVuSans-70"/>
     <path d="M 54.890625 33.015625 
L 54.890625 0 
L 45.90625 0 
L 45.90625 32.71875 
Q 45.90625 40.484375 42.875 44.328125 
Q 39.84375 48.1875 33.796875 48.1875 
Q 26.515625 48.1875 22.3125 43.546875 
Q 18.109375 38.921875 18.109375 30.90625 
L 18.109375 0 
L 9.078125 0 
L 9.078125 75.984375 
L 18.109375 75.984375 
L 18.109375 46.1875 
Q 21.34375 51.125 25.703125 53.5625 
Q 30.078125 56 35.796875 56 
Q 45.21875 56 50.046875 50.171875 
Q 54.890625 44.34375 54.890625 33.015625 
z
" id="DejaVuSans-68"/>
    </defs>
    <g style="fill:#2ca02c;" transform="translate(259.064826 165.117207)scale(0.1 -0.1)">
     <use xlink:href="#DejaVuSans-56"/>
     <use x="68.376953" xlink:href="#DejaVuSans-69"/>
     <use x="96.160156" xlink:href="#DejaVuSans-62"/>
     <use x="159.636719" xlink:href="#DejaVuSans-72"/>
     <use x="200.75" xlink:href="#DejaVuSans-61"/>
     <use x="262.029297" xlink:href="#DejaVuSans-70"/>
     <use x="325.505859" xlink:href="#DejaVuSans-68"/>
     <use x="388.884766" xlink:href="#DejaVuSans-6f"/>
     <use x="450.066406" xlink:href="#DejaVuSans-6e"/>
     <use x="513.445312" xlink:href="#DejaVuSans-65"/>
    </g>
   </g>
   <g id="text_18">
    <!-- Church Organ -->
    <defs>
     <path d="M 8.5 21.578125 
L 8.5 54.6875 
L 17.484375 54.6875 
L 17.484375 21.921875 
Q 17.484375 14.15625 20.5 10.265625 
Q 23.53125 6.390625 29.59375 6.390625 
Q 36.859375 6.390625 41.078125 11.03125 
Q 45.3125 15.671875 45.3125 23.6875 
L 45.3125 54.6875 
L 54.296875 54.6875 
L 54.296875 0 
L 45.3125 0 
L 45.3125 8.40625 
Q 42.046875 3.421875 37.71875 1 
Q 33.40625 -1.421875 27.6875 -1.421875 
Q 18.265625 -1.421875 13.375 4.4375 
Q 8.5 10.296875 8.5 21.578125 
z
M 31.109375 56 
z
" id="DejaVuSans-75"/>
    </defs>
    <g style="fill:#d62728;" transform="translate(259.064826 123.068397)scale(0.1 -0.1)">
     <use xlink:href="#DejaVuSans-43"/>
     <use x="69.824219" xlink:href="#DejaVuSans-68"/>
     <use x="133.203125" xlink:href="#DejaVuSans-75"/>
     <use x="196.582031" xlink:href="#DejaVuSans-72"/>
     <use x="237.664062" xlink:href="#DejaVuSans-63"/>
     <use x="292.644531" xlink:href="#DejaVuSans-68"/>
     <use x="356.023438" xlink:href="#DejaVuSans-20"/>
     <use x="387.810547" xlink:href="#DejaVuSans-4f"/>
     <use x="466.521484" xlink:href="#DejaVuSans-72"/>
     <use x="507.619141" xlink:href="#DejaVuSans-67"/>
     <use x="571.095703" xlink:href="#DejaVuSans-61"/>
     <use x="632.375" xlink:href="#DejaVuSans-6e"/>
    </g>
   </g>
   <g id="text_19">
    <!-- Acoustic Guitar -->
    <defs>
     <path d="M 34.1875 63.1875 
L 20.796875 26.90625 
L 47.609375 26.90625 
z
M 28.609375 72.90625 
L 39.796875 72.90625 
L 67.578125 0 
L 57.328125 0 
L 50.6875 18.703125 
L 17.828125 18.703125 
L 11.1875 0 
L 0.78125 0 
z
" id="DejaVuSans-41"/>
    </defs>
    <g style="fill:#9467bd;" transform="translate(259.064826 72.494092)scale(0.1 -0.1)">
     <use xlink:href="#DejaVuSans-41"/>
     <use x="68.392578" xlink:href="#DejaVuSans-63"/>
     <use x="123.373047" xlink:href="#DejaVuSans-6f"/>
     <use x="184.554688" xlink:href="#DejaVuSans-75"/>
     <use x="247.933594" xlink:href="#DejaVuSans-73"/>
     <use x="300.033203" xlink:href="#DejaVuSans-74"/>
     <use x="339.242188" xlink:href="#DejaVuSans-69"/>
     <use x="367.025391" xlink:href="#DejaVuSans-63"/>
     <use x="422.005859" xlink:href="#DejaVuSans-20"/>
     <use x="453.792969" xlink:href="#DejaVuSans-47"/>
     <use x="531.283203" xlink:href="#DejaVuSans-75"/>
     <use x="594.662109" xlink:href="#DejaVuSans-69"/>
     <use x="622.445312" xlink:href="#DejaVuSans-74"/>
     <use x="661.654297" xlink:href="#DejaVuSans-61"/>
     <use x="722.933594" xlink:href="#DejaVuSans-72"/>
    </g>
   </g>
   <g id="text_20">
    <!-- Pizzicato Strings -->
    <defs>
     <path d="M 5.515625 54.6875 
L 48.1875 54.6875 
L 48.1875 46.484375 
L 14.40625 7.171875 
L 48.1875 7.171875 
L 48.1875 0 
L 4.296875 0 
L 4.296875 8.203125 
L 38.09375 47.515625 
L 5.515625 47.515625 
z
" id="DejaVuSans-7a"/>
     <path d="M 53.515625 70.515625 
L 53.515625 60.890625 
Q 47.90625 63.578125 42.921875 64.890625 
Q 37.9375 66.21875 33.296875 66.21875 
Q 25.25 66.21875 20.875 63.09375 
Q 16.5 59.96875 16.5 54.203125 
Q 16.5 49.359375 19.40625 46.890625 
Q 22.3125 44.4375 30.421875 42.921875 
L 36.375 41.703125 
Q 47.40625 39.59375 52.65625 34.296875 
Q 57.90625 29 57.90625 20.125 
Q 57.90625 9.515625 50.796875 4.046875 
Q 43.703125 -1.421875 29.984375 -1.421875 
Q 24.8125 -1.421875 18.96875 -0.25 
Q 13.140625 0.921875 6.890625 3.21875 
L 6.890625 13.375 
Q 12.890625 10.015625 18.65625 8.296875 
Q 24.421875 6.59375 29.984375 6.59375 
Q 38.421875 6.59375 43.015625 9.90625 
Q 47.609375 13.234375 47.609375 19.390625 
Q 47.609375 24.75 44.3125 27.78125 
Q 41.015625 30.8125 33.5 32.328125 
L 27.484375 33.5 
Q 16.453125 35.6875 11.515625 40.375 
Q 6.59375 45.0625 6.59375 53.421875 
Q 6.59375 63.09375 13.40625 68.65625 
Q 20.21875 74.21875 32.171875 74.21875 
Q 37.3125 74.21875 42.625 73.28125 
Q 47.953125 72.359375 53.515625 70.515625 
z
" id="DejaVuSans-53"/>
    </defs>
    <g style="fill:#8c564b;" transform="translate(259.064826 37.054056)scale(0.1 -0.1)">
     <use xlink:href="#DejaVuSans-50"/>
     <use x="60.271484" xlink:href="#DejaVuSans-69"/>
     <use x="88.054688" xlink:href="#DejaVuSans-7a"/>
     <use x="140.544922" xlink:href="#DejaVuSans-7a"/>
     <use x="193.035156" xlink:href="#DejaVuSans-69"/>
     <use x="220.818359" xlink:href="#DejaVuSans-63"/>
     <use x="275.798828" xlink:href="#DejaVuSans-61"/>
     <use x="337.078125" xlink:href="#DejaVuSans-74"/>
     <use x="376.287109" xlink:href="#DejaVuSans-6f"/>
     <use x="437.46875" xlink:href="#DejaVuSans-20"/>
     <use x="469.255859" xlink:href="#DejaVuSans-53"/>
     <use x="532.732422" xlink:href="#DejaVuSans-74"/>
     <use x="571.941406" xlink:href="#DejaVuSans-72"/>
     <use x="613.054688" xlink:href="#DejaVuSans-69"/>
     <use x="640.837891" xlink:href="#DejaVuSans-6e"/>
     <use x="704.216797" xlink:href="#DejaVuSans-67"/>
     <use x="767.693359" xlink:href="#DejaVuSans-73"/>
    </g>
   </g>
   <g id="text_21">
    <!-- Orchestral Harp -->
    <defs>
     <path d="M 9.8125 72.90625 
L 19.671875 72.90625 
L 19.671875 43.015625 
L 55.515625 43.015625 
L 55.515625 72.90625 
L 65.375 72.90625 
L 65.375 0 
L 55.515625 0 
L 55.515625 34.71875 
L 19.671875 34.71875 
L 19.671875 0 
L 9.8125 0 
z
" id="DejaVuSans-48"/>
    </defs>
    <g style="fill:#e377c2;" transform="translate(259.064826 90.702131)scale(0.1 -0.1)">
     <use xlink:href="#DejaVuSans-4f"/>
     <use x="78.710938" xlink:href="#DejaVuSans-72"/>
     <use x="119.792969" xlink:href="#DejaVuSans-63"/>
     <use x="174.773438" xlink:href="#DejaVuSans-68"/>
     <use x="238.152344" xlink:href="#DejaVuSans-65"/>
     <use x="299.675781" xlink:href="#DejaVuSans-73"/>
     <use x="351.775391" xlink:href="#DejaVuSans-74"/>
     <use x="390.984375" xlink:href="#DejaVuSans-72"/>
     <use x="432.097656" xlink:href="#DejaVuSans-61"/>
     <use x="493.376953" xlink:href="#DejaVuSans-6c"/>
     <use x="521.160156" xlink:href="#DejaVuSans-20"/>
     <use x="552.947266" xlink:href="#DejaVuSans-48"/>
     <use x="628.142578" xlink:href="#DejaVuSans-61"/>
     <use x="689.421875" xlink:href="#DejaVuSans-72"/>
     <use x="730.535156" xlink:href="#DejaVuSans-70"/>
    </g>
   </g>
   <g id="text_22">
    <!-- String Ensemble -->
    <defs>
     <path d="M 52 44.1875 
Q 55.375 50.25 60.0625 53.125 
Q 64.75 56 71.09375 56 
Q 79.640625 56 84.28125 50.015625 
Q 88.921875 44.046875 88.921875 33.015625 
L 88.921875 0 
L 79.890625 0 
L 79.890625 32.71875 
Q 79.890625 40.578125 77.09375 44.375 
Q 74.3125 48.1875 68.609375 48.1875 
Q 61.625 48.1875 57.5625 43.546875 
Q 53.515625 38.921875 53.515625 30.90625 
L 53.515625 0 
L 44.484375 0 
L 44.484375 32.71875 
Q 44.484375 40.625 41.703125 44.40625 
Q 38.921875 48.1875 33.109375 48.1875 
Q 26.21875 48.1875 22.15625 43.53125 
Q 18.109375 38.875 18.109375 30.90625 
L 18.109375 0 
L 9.078125 0 
L 9.078125 54.6875 
L 18.109375 54.6875 
L 18.109375 46.1875 
Q 21.1875 51.21875 25.484375 53.609375 
Q 29.78125 56 35.6875 56 
Q 41.65625 56 45.828125 52.96875 
Q 50 49.953125 52 44.1875 
z
" id="DejaVuSans-6d"/>
    </defs>
    <g style="fill:#7f7f7f;" transform="translate(259.064826 154.330707)scale(0.1 -0.1)">
     <use xlink:href="#DejaVuSans-53"/>
     <use x="63.476562" xlink:href="#DejaVuSans-74"/>
     <use x="102.685547" xlink:href="#DejaVuSans-72"/>
     <use x="143.798828" xlink:href="#DejaVuSans-69"/>
     <use x="171.582031" xlink:href="#DejaVuSans-6e"/>
     <use x="234.960938" xlink:href="#DejaVuSans-67"/>
     <use x="298.4375" xlink:href="#DejaVuSans-20"/>
     <use x="330.224609" xlink:href="#DejaVuSans-45"/>
     <use x="393.408203" xlink:href="#DejaVuSans-6e"/>
     <use x="456.787109" xlink:href="#DejaVuSans-73"/>
     <use x="508.886719" xlink:href="#DejaVuSans-65"/>
     <use x="570.410156" xlink:href="#DejaVuSans-6d"/>
     <use x="667.822266" xlink:href="#DejaVuSans-62"/>
     <use x="731.298828" xlink:href="#DejaVuSans-6c"/>
     <use x="759.082031" xlink:href="#DejaVuSans-65"/>
    </g>
   </g>
   <g id="text_23">
    <!-- Trumpet -->
    <defs>
     <path d="M -0.296875 72.90625 
L 61.375 72.90625 
L 61.375 64.59375 
L 35.5 64.59375 
L 35.5 0 
L 25.59375 0 
L 25.59375 64.59375 
L -0.296875 64.59375 
z
" id="DejaVuSans-54"/>
    </defs>
    <g style="fill:#bcbd22;" transform="translate(259.064826 110.286121)scale(0.1 -0.1)">
     <use xlink:href="#DejaVuSans-54"/>
     <use x="60.865234" xlink:href="#DejaVuSans-72"/>
     <use x="101.978516" xlink:href="#DejaVuSans-75"/>
     <use x="165.357422" xlink:href="#DejaVuSans-6d"/>
     <use x="262.769531" xlink:href="#DejaVuSans-70"/>
     <use x="326.246094" xlink:href="#DejaVuSans-65"/>
     <use x="387.769531" xlink:href="#DejaVuSans-74"/>
    </g>
   </g>
   <g id="text_24">
    <!-- Synth Lead -->
    <defs>
     <path d="M 32.171875 -5.078125 
Q 28.375 -14.84375 24.75 -17.8125 
Q 21.140625 -20.796875 15.09375 -20.796875 
L 7.90625 -20.796875 
L 7.90625 -13.28125 
L 13.1875 -13.28125 
Q 16.890625 -13.28125 18.9375 -11.515625 
Q 21 -9.765625 23.484375 -3.21875 
L 25.09375 0.875 
L 2.984375 54.6875 
L 12.5 54.6875 
L 29.59375 11.921875 
L 46.6875 54.6875 
L 56.203125 54.6875 
z
" id="DejaVuSans-79"/>
     <path d="M 9.8125 72.90625 
L 19.671875 72.90625 
L 19.671875 8.296875 
L 55.171875 8.296875 
L 55.171875 0 
L 9.8125 0 
z
" id="DejaVuSans-4c"/>
    </defs>
    <g style="fill:#17becf;" transform="translate(259.064826 99.302543)scale(0.1 -0.1)">
     <use xlink:href="#DejaVuSans-53"/>
     <use x="63.476562" xlink:href="#DejaVuSans-79"/>
     <use x="122.65625" xlink:href="#DejaVuSans-6e"/>
     <use x="186.035156" xlink:href="#DejaVuSans-74"/>
     <use x="225.244141" xlink:href="#DejaVuSans-68"/>
     <use x="288.623047" xlink:href="#DejaVuSans-20"/>
     <use x="320.410156" xlink:href="#DejaVuSans-4c"/>
     <use x="376.107422" xlink:href="#DejaVuSans-65"/>
     <use x="437.630859" xlink:href="#DejaVuSans-61"/>
     <use x="498.910156" xlink:href="#DejaVuSans-64"/>
    </g>
   </g>
  </g>
 </g>
 <defs>
  <clipPath id="pf7ce3c87a1">
   <rect height="231.9" width="298.025" x="47.675" y="14.3"/>
  </clipPath>
 </defs>
</svg>
